<svg width="121" height="17" viewBox="0 0 121 17" fill="none" xmlns="http://www.w3.org/2000/svg">
<path d="M1.44 12.5996V-0.000391483H6.264C7.02 -0.000391483 7.692 0.149609 8.28 0.449609C8.88 0.737609 9.354 1.15161 9.702 1.69161C10.05 2.23161 10.224 2.88561 10.224 3.65361V3.88761C10.224 4.64361 10.044 5.29761 9.684 5.84961C9.336 6.38961 8.862 6.80361 8.262 7.09161C7.662 7.37961 6.996 7.52361 6.264 7.52361H2.952V12.5996H1.44ZM2.952 6.15561H6.102C6.906 6.15561 7.542 5.95761 8.01 5.56161C8.478 5.15361 8.712 4.58361 8.712 3.85161V3.67161C8.712 2.93961 8.478 2.37561 8.01 1.97961C7.554 1.57161 6.918 1.36761 6.102 1.36761H2.952V6.15561ZM12.3045 12.5996V3.79761H13.6905V4.87761H13.9425C14.0985 4.49361 14.3385 4.21161 14.6625 4.03161C14.9865 3.85161 15.4125 3.76161 15.9405 3.76161H16.9845V5.05761H15.8505C15.2145 5.05761 14.6985 5.23761 14.3025 5.59761C13.9185 5.94561 13.7265 6.49161 13.7265 7.23561V12.5996H12.3045ZM19.0897 12.5996V3.79761H20.5117V12.5996H19.0897ZM19.8097 2.42961C19.4977 2.42961 19.2337 2.32761 19.0177 2.12361C18.8137 1.91961 18.7117 1.66161 18.7117 1.34961C18.7117 1.02561 18.8137 0.761609 19.0177 0.557609C19.2337 0.353609 19.4977 0.251608 19.8097 0.251608C20.1217 0.251608 20.3797 0.353609 20.5837 0.557609C20.7877 0.761609 20.8897 1.02561 20.8897 1.34961C20.8897 1.66161 20.7877 1.91961 20.5837 2.12361C20.3797 2.32761 20.1217 2.42961 19.8097 2.42961ZM25.7338 12.5996L22.5838 3.79761H24.0958L26.7418 11.5376H26.9938L29.6398 3.79761H31.1518L28.0018 12.5996H25.7338ZM35.6237 12.8516C35.0117 12.8516 34.4537 12.7436 33.9497 12.5276C33.4457 12.3116 33.0497 11.9996 32.7617 11.5916C32.4737 11.1836 32.3297 10.6856 32.3297 10.0976C32.3297 9.49761 32.4737 9.00561 32.7617 8.62161C33.0497 8.22561 33.4457 7.93161 33.9497 7.73961C34.4537 7.53561 35.0177 7.43361 35.6417 7.43361H38.6117V6.78561C38.6117 6.16161 38.4257 5.66961 38.0537 5.30961C37.6937 4.94961 37.1537 4.76961 36.4337 4.76961C35.7257 4.76961 35.1737 4.94361 34.7777 5.29161C34.3817 5.62761 34.1117 6.08361 33.9677 6.65961L32.6357 6.22761C32.7797 5.73561 33.0077 5.29161 33.3197 4.89561C33.6317 4.48761 34.0457 4.16361 34.5617 3.92361C35.0897 3.67161 35.7197 3.54561 36.4517 3.54561C37.5797 3.54561 38.4557 3.83961 39.0797 4.42761C39.7037 5.00361 40.0157 5.81961 40.0157 6.87561V10.8536C40.0157 11.2136 40.1837 11.3936 40.5197 11.3936H41.3297V12.5996H40.0877C39.6917 12.5996 39.3737 12.4916 39.1337 12.2756C38.8937 12.0476 38.7737 11.7476 38.7737 11.3756V11.2856H38.5577C38.4257 11.5136 38.2457 11.7536 38.0177 12.0056C37.8017 12.2456 37.5017 12.4436 37.1177 12.5996C36.7337 12.7676 36.2357 12.8516 35.6237 12.8516ZM35.7857 11.6276C36.6257 11.6276 37.3037 11.3816 37.8197 10.8896C38.3477 10.3856 38.6117 9.68361 38.6117 8.78361V8.58561H35.6957C35.1317 8.58561 34.6637 8.71161 34.2917 8.96361C33.9317 9.20361 33.7517 9.56961 33.7517 10.0616C33.7517 10.5536 33.9377 10.9376 34.3097 11.2136C34.6937 11.4896 35.1857 11.6276 35.7857 11.6276ZM47.0811 12.8516C46.2291 12.8516 45.4611 12.6716 44.7771 12.3116C44.1051 11.9396 43.5711 11.4116 43.1751 10.7276C42.7911 10.0436 42.5991 9.23361 42.5991 8.29761V8.09961C42.5991 7.15161 42.7911 6.34161 43.1751 5.66961C43.5711 4.98561 44.1051 4.46361 44.7771 4.10361C45.4611 3.73161 46.2291 3.54561 47.0811 3.54561C47.9211 3.54561 48.6351 3.70161 49.2231 4.01361C49.8231 4.32561 50.2911 4.73961 50.6271 5.25561C50.9751 5.77161 51.1971 6.32361 51.2931 6.91161L49.9071 7.19961C49.8471 6.76761 49.7031 6.37161 49.4751 6.01161C49.2591 5.65161 48.9531 5.36361 48.5571 5.14761C48.1611 4.93161 47.6751 4.82361 47.0991 4.82361C46.5111 4.82361 45.9831 4.95561 45.5151 5.21961C45.0591 5.48361 44.6931 5.86161 44.4171 6.35361C44.1531 6.84561 44.0211 7.43361 44.0211 8.11761V8.27961C44.0211 8.96361 44.1531 9.55161 44.4171 10.0436C44.6931 10.5356 45.0591 10.9136 45.5151 11.1776C45.9831 11.4416 46.5111 11.5736 47.0991 11.5736C47.9751 11.5736 48.6411 11.3456 49.0971 10.8896C49.5651 10.4336 49.8531 9.86961 49.9611 9.19761L51.3651 9.50361C51.2331 10.0796 50.9931 10.6256 50.6451 11.1416C50.2971 11.6576 49.8231 12.0716 49.2231 12.3836C48.6351 12.6956 47.9211 12.8516 47.0811 12.8516ZM54.8509 16.1996V14.9396H59.8909C60.2389 14.9396 60.4129 14.7596 60.4129 14.3996V11.1956H60.1609C60.0409 11.4476 59.8549 11.6996 59.6029 11.9516C59.3629 12.1916 59.0449 12.3896 58.6489 12.5456C58.2529 12.6896 57.7549 12.7616 57.1549 12.7616C56.5189 12.7616 55.9309 12.6236 55.3909 12.3476C54.8629 12.0716 54.4429 11.6636 54.1309 11.1236C53.8309 10.5836 53.6809 9.92361 53.6809 9.14361V3.79761H55.1029V9.03561C55.1029 9.89961 55.3189 10.5296 55.7509 10.9256C56.1949 11.3216 56.7889 11.5196 57.5329 11.5196C58.3729 11.5196 59.0629 11.2436 59.6029 10.6916C60.1429 10.1396 60.4129 9.31761 60.4129 8.22561V3.79761H61.8349V14.6516C61.8349 15.1316 61.6969 15.5096 61.4209 15.7856C61.1569 16.0616 60.7669 16.1996 60.2509 16.1996H54.8509ZM69.3795 12.5996V-0.000391483H74.2035C74.9595 -0.000391483 75.6315 0.149609 76.2195 0.449609C76.8195 0.737609 77.2935 1.15161 77.6415 1.69161C77.9895 2.23161 78.1635 2.88561 78.1635 3.65361V3.88761C78.1635 4.64361 77.9835 5.29761 77.6235 5.84961C77.2755 6.38961 76.8015 6.80361 76.2015 7.09161C75.6015 7.37961 74.9355 7.52361 74.2035 7.52361H70.8915V12.5996H69.3795ZM70.8915 6.15561H74.0415C74.8455 6.15561 75.4815 5.95761 75.9495 5.56161C76.4175 5.15361 76.6515 4.58361 76.6515 3.85161V3.67161C76.6515 2.93961 76.4175 2.37561 75.9495 1.97961C75.4935 1.57161 74.8575 1.36761 74.0415 1.36761H70.8915V6.15561ZM84.0308 12.8516C83.1428 12.8516 82.3568 12.6656 81.6728 12.2936C81.0008 11.9216 80.4728 11.3996 80.0888 10.7276C79.7168 10.0436 79.5308 9.23961 79.5308 8.31561V8.08161C79.5308 7.16961 79.7168 6.37161 80.0888 5.68761C80.4728 5.00361 81.0008 4.47561 81.6728 4.10361C82.3568 3.73161 83.1428 3.54561 84.0308 3.54561C84.9188 3.54561 85.6988 3.73161 86.3708 4.10361C87.0548 4.47561 87.5828 5.00361 87.9548 5.68761C88.3388 6.37161 88.5308 7.16961 88.5308 8.08161V8.31561C88.5308 9.23961 88.3388 10.0436 87.9548 10.7276C87.5828 11.3996 87.0548 11.9216 86.3708 12.2936C85.6988 12.6656 84.9188 12.8516 84.0308 12.8516ZM84.0308 11.5736C84.9668 11.5736 85.7108 11.2796 86.2628 10.6916C86.8268 10.0916 87.1088 9.28761 87.1088 8.27961V8.11761C87.1088 7.10961 86.8268 6.31161 86.2628 5.72361C85.7108 5.12361 84.9668 4.82361 84.0308 4.82361C83.1068 4.82361 82.3628 5.12361 81.7988 5.72361C81.2348 6.31161 80.9528 7.10961 80.9528 8.11761V8.27961C80.9528 9.28761 81.2348 10.0916 81.7988 10.6916C82.3628 11.2796 83.1068 11.5736 84.0308 11.5736ZM91.0897 12.5996V-0.000391483H92.5117V12.5996H91.0897ZM95.5018 12.5996V3.79761H96.9238V12.5996H95.5018ZM96.2218 2.42961C95.9098 2.42961 95.6458 2.32761 95.4298 2.12361C95.2258 1.91961 95.1238 1.66161 95.1238 1.34961C95.1238 1.02561 95.2258 0.761609 95.4298 0.557609C95.6458 0.353609 95.9098 0.251608 96.2218 0.251608C96.5338 0.251608 96.7918 0.353609 96.9958 0.557609C97.1998 0.761609 97.3018 1.02561 97.3018 1.34961C97.3018 1.66161 97.1998 1.91961 96.9958 2.12361C96.7918 2.32761 96.5338 2.42961 96.2218 2.42961ZM103.964 12.8516C103.112 12.8516 102.344 12.6716 101.66 12.3116C100.988 11.9396 100.454 11.4116 100.058 10.7276C99.6739 10.0436 99.4819 9.23361 99.4819 8.29761V8.09961C99.4819 7.15161 99.6739 6.34161 100.058 5.66961C100.454 4.98561 100.988 4.46361 101.66 4.10361C102.344 3.73161 103.112 3.54561 103.964 3.54561C104.804 3.54561 105.518 3.70161 106.106 4.01361C106.706 4.32561 107.174 4.73961 107.51 5.25561C107.858 5.77161 108.08 6.32361 108.176 6.91161L106.79 7.19961C106.73 6.76761 106.586 6.37161 106.358 6.01161C106.142 5.65161 105.836 5.36361 105.44 5.14761C105.044 4.93161 104.558 4.82361 103.982 4.82361C103.394 4.82361 102.866 4.95561 102.398 5.21961C101.942 5.48361 101.576 5.86161 101.3 6.35361C101.036 6.84561 100.904 7.43361 100.904 8.11761V8.27961C100.904 8.96361 101.036 9.55161 101.3 10.0436C101.576 10.5356 101.942 10.9136 102.398 11.1776C102.866 11.4416 103.394 11.5736 103.982 11.5736C104.858 11.5736 105.524 11.3456 105.98 10.8896C106.448 10.4336 106.736 9.86961 106.844 9.19761L108.248 9.50361C108.116 10.0796 107.876 10.6256 107.528 11.1416C107.18 11.6576 106.706 12.0716 106.106 12.3836C105.518 12.6956 104.804 12.8516 103.964 12.8516ZM111.734 16.1996V14.9396H116.774C117.122 14.9396 117.296 14.7596 117.296 14.3996V11.1956H117.044C116.924 11.4476 116.738 11.6996 116.486 11.9516C116.246 12.1916 115.928 12.3896 115.532 12.5456C115.136 12.6896 114.638 12.7616 114.038 12.7616C113.402 12.7616 112.814 12.6236 112.274 12.3476C111.746 12.0716 111.326 11.6636 111.014 11.1236C110.714 10.5836 110.564 9.92361 110.564 9.14361V3.79761H111.986V9.03561C111.986 9.89961 112.202 10.5296 112.634 10.9256C113.078 11.3216 113.672 11.5196 114.416 11.5196C115.256 11.5196 115.946 11.2436 116.486 10.6916C117.026 10.1396 117.296 9.31761 117.296 8.22561V3.79761H118.718V14.6516C118.718 15.1316 118.58 15.5096 118.304 15.7856C118.04 16.0616 117.65 16.1996 117.134 16.1996H111.734Z" fill="white"/>
<path d="M0 14.8496H120.194V15.7496H0V14.8496Z" fill="white"/>
</svg>
